<svg xmlns="http://www.w3.org/2000/svg" viewBox="0 0 524 160"><defs><style>.cls-1{fill:#fff;}</style></defs><title>Recurso 1</title><g id="Capa_2" data-name="Capa 2"><g id="Capa_1-2" data-name="Capa 1"><path class="cls-1" d="M57,72.21c-2.36-2.84-7-3.93-10.18-2.42a9,9,0,0,0-5.37,8.4,3.83,3.83,0,0,1-1.73,3.44c-1.9,1.21-3.83,2.4-5.83,3.46a5.2,5.2,0,0,1-5.46-.22,15.59,15.59,0,0,0-4.83-2.06A10.79,10.79,0,0,0,11,96.06c1.38,5.32,4.53,8.18,10.94,8.64a13.7,13.7,0,0,1,9.86,4.56c3,3.47,5.84,7.08,5.67,12h0a7.66,7.66,0,0,0,0,1.66,12.61,12.61,0,0,0,1.08,3.38c1.35,2.49,5.29,3.79,8.12,3a7.86,7.86,0,0,0,5.52-6.84c.24-3.58-2.49-6.71-6.58-7.65a22.71,22.71,0,0,1-4.45-1.37c-2.67-1.24-4.09-3.78-5.85-6-4-4.93-3.61-10.39-2-16a4.22,4.22,0,0,1,1.41-2.08c1.69-1.24,3.53-2.29,5.28-3.46a5.56,5.56,0,0,1,6.17-.46c4.47,2.22,8.41,1.09,11.45-2.86C60,79.63,59.76,75.5,57,72.21Z"/><path class="cls-1" d="M47.91,8.78c-4.57,0-9.15,0-13.72,0-2.41,0-3.51,1-3.94,3.29a3.56,3.56,0,0,0,1.8,3.68c1.58,1,1.86,2.36,1.83,4.1-.07,5.21,0,10.42,0,15.63,0,2.16,0,4.32-.15,6.46-.1,1.67-2.28,3.53-4,3.56A3.87,3.87,0,0,1,25.71,42c-.08-5.71-.06-11.42,0-17.13a8.83,8.83,0,0,0-1.53-5.32C18,10.35,25.26,1.05,33.39.2A33.83,33.83,0,0,1,37.15,0c8.6.07,17.2,0,25.79.32A12.2,12.2,0,0,1,73.63,6.6a11,11,0,0,1-.11,12.1,11.29,11.29,0,0,0-1.8,6.49c.1,11.83.08,23.67,0,35.5A3.54,3.54,0,0,0,74,64.29,44,44,0,0,1,87.58,75.37,51.37,51.37,0,0,1,99.19,100a48.67,48.67,0,0,1-4.53,31c-6.85,13.83-17.75,23-32.53,27.07-15.38,4.26-29.9,1.67-43.15-7.26C10.35,144.92,4,137.15,1,127.16c-1.52-5-1.56-10.22,1.8-14.83,4.76-6.54,16.38-8,21.39.37,2.05,3.43,3.66,7.11,5.57,10.63a50,50,0,0,0,3.72,6.17,13.41,13.41,0,0,0,16.32,4.28c6.42-3.13,9.69-9.56,7.72-16-.83-2.73-2.64-5.14-3.85-7.77a73.82,73.82,0,0,1-2.93-7.34,5.41,5.41,0,0,1,1.21-5.35,76.59,76.59,0,0,1,6.32-6.42,17.77,17.77,0,0,0,6.21-11,24.2,24.2,0,0,0-.27-5.22c-.31-3.23-.94-6.45-1-9.68-.09-12.29,0-24.57,0-36.85,0-3.11,0-6.22-.11-9.33A2.74,2.74,0,0,1,64.72,16c2.51-1.46,2.93-4.61.88-6.32a4,4,0,0,0-2.3-.9c-5.13-.08-10.26,0-15.39,0Z"/><path class="cls-1" d="M26.18,60c3.37,0,6.53,2.8,6.51,5.78,0,3.54-3,6.72-6.25,6.7a6.31,6.31,0,0,1-6.13-6.42A6.05,6.05,0,0,1,26.18,60Z"/><path class="cls-1" d="M172.51,55.62a30.25,30.25,0,0,1,9,4l-3.11,13.75A38.57,38.57,0,0,0,170,69.9a33.61,33.61,0,0,0-9.65-1.42,24.94,24.94,0,0,0-10.85,2,13.39,13.39,0,0,0-6.38,7.2q-2.18,5.15-2.18,14.48t2.18,14.39a12.91,12.91,0,0,0,6.33,7,25.85,25.85,0,0,0,10.9,1.94,31.56,31.56,0,0,0,11.41-1.78,38.31,38.31,0,0,0,7.89-4.1L182,124.12A42.26,42.26,0,0,1,160.32,130q-16.5,0-26.41-9.19T124,92.2q0-19.41,10-28.81T160.32,54A43,43,0,0,1,172.51,55.62Z"/><path class="cls-1" d="M200.52,122.49q-7.1-7.18-7.1-20.31,0-13.55,7.1-21t20.29-7.45q13.17,0,20.39,7.45t7.21,21q0,13.13-7.21,20.31t-20.39,7.19Q207.63,129.68,200.52,122.49Zm28.69-9.81q2.81-3.15,2.81-10.5,0-8-2.81-11.29t-8.4-3.3q-5.51,0-8.25,3.46t-2.75,11.13q0,7.14,2.75,10.39t8.25,3.26Q226.42,115.83,229.21,112.68Z"/><path class="cls-1" d="M312.64,50v78.74H299.36l-2.18-4.62a23.89,23.89,0,0,1-15.67,5.56q-12.24,0-18.73-7.13t-6.48-20.37q0-13.75,6.38-21.1t18.93-7.35A22.5,22.5,0,0,1,296.24,79V50Zm-21,62.31q3.47-3.51,3.47-10.13,0-7-3.42-10.82a11.38,11.38,0,0,0-8.82-3.77,8.79,8.79,0,0,0-7.68,3.88q-2.7,3.89-2.7,10.71a16.41,16.41,0,0,0,2.75,9.87,8.91,8.91,0,0,0,7.63,3.78A11.8,11.8,0,0,0,291.63,112.31Z"/><path class="cls-1" d="M372.82,107.22H337.64a12.61,12.61,0,0,0,1.66,5.51,6.08,6.08,0,0,0,3.53,2.47,25.46,25.46,0,0,0,6.44.63A41.61,41.61,0,0,0,358,115a26.35,26.35,0,0,0,6.18-2l5.29,9.45q-7.89,7.25-21.17,7.24-12.45,0-19.4-7.24T322,102.18q0-13.55,6.95-21t19.4-7.45q12.15,0,18.26,7.24t6.23,20.89ZM341.59,89.37a9.46,9.46,0,0,0-3.43,5.77h18.47q-.51-4.29-2.28-5.93c-1.18-1.08-3.18-1.62-6-1.62A11.36,11.36,0,0,0,341.59,89.37Z"/><path class="cls-1" d="M383.2,50h16.39v78.74H383.2Z"/><path class="cls-1" d="M456.35,90.94v37.8H446.18l-3.53-3.67q-4.15,4.62-12.45,4.61-10.17,0-15.36-4.93a16.38,16.38,0,0,1-5.19-12.39q0-6.51,3.12-10a15.59,15.59,0,0,1,7.31-4.78,69.08,69.08,0,0,1,10.53-2.1,41,41,0,0,0,7.73-1.58,3.07,3.07,0,0,0,2.34-3,2.88,2.88,0,0,0-2.34-3,17.25,17.25,0,0,0-4.92-.68q-4.26,0-12,3.35l-4.25-12.38A68.22,68.22,0,0,1,426.36,75a33.44,33.44,0,0,1,8.41-1.26q9.75,0,15.66,4.2t5.92,12.91Zm-16.92,22.31a7.89,7.89,0,0,0,2.39-5v-4.2q-2.91.63-4.77.84a51.59,51.59,0,0,0-9.19,2.31A4,4,0,0,0,425,111.1a3.58,3.58,0,0,0,2.13,3.26,8.92,8.92,0,0,0,4.3,1.15Q437.26,115.51,439.43,113.25Z"/><path class="cls-1" d="M517.62,81.08q6.38,7.35,6.38,21.1,0,13.23-6.49,20.37t-18.72,7.13a25,25,0,0,1-8.36-1.41,23,23,0,0,1-7.21-4.15L481,128.74H467.76V50h16.39V78.87a22.92,22.92,0,0,1,14.53-5.14Q511.24,73.73,517.62,81.08Zm-12.56,31q2.76-3.78,2.75-9.87,0-6.83-2.69-10.71a8.79,8.79,0,0,0-7.68-3.88,11.38,11.38,0,0,0-8.82,3.77q-3.44,3.78-3.43,10.82,0,6.61,3.48,10.13a11.8,11.8,0,0,0,8.77,3.52A8.89,8.89,0,0,0,505.06,112.05Z"/></g></g></svg>