<svg xmlns="http://www.w3.org/2000/svg" viewBox="0 0 100 160"><defs><style>.cls-1{fill:#fff;}</style></defs><title>Recurso 3</title><g id="Capa_2" data-name="Capa 2"><g id="Capa_1-2" data-name="Capa 1"><path class="cls-1" d="M57,72.21c-2.36-2.84-7-3.93-10.18-2.42a9,9,0,0,0-5.37,8.4,3.83,3.83,0,0,1-1.73,3.44c-1.9,1.21-3.83,2.4-5.83,3.46a5.2,5.2,0,0,1-5.46-.22,15.59,15.59,0,0,0-4.83-2.06A10.79,10.79,0,0,0,11,96.06c1.38,5.32,4.53,8.18,10.94,8.64a13.7,13.7,0,0,1,9.86,4.56c3,3.47,5.84,7.08,5.67,12h0a7.66,7.66,0,0,0,0,1.66,12.61,12.61,0,0,0,1.08,3.38c1.35,2.49,5.29,3.79,8.12,3a7.86,7.86,0,0,0,5.52-6.84c.24-3.58-2.49-6.71-6.58-7.65a22.71,22.71,0,0,1-4.45-1.37c-2.67-1.24-4.09-3.78-5.85-6-4-4.93-3.61-10.39-2-16a4.22,4.22,0,0,1,1.41-2.08c1.69-1.24,3.53-2.29,5.28-3.46a5.56,5.56,0,0,1,6.17-.46c4.47,2.22,8.41,1.09,11.45-2.86C60,79.63,59.76,75.5,57,72.21Z"/><path class="cls-1" d="M47.91,8.78c-4.57,0-9.15,0-13.72,0-2.41,0-3.51,1-3.94,3.29a3.56,3.56,0,0,0,1.8,3.68c1.58,1,1.86,2.36,1.83,4.1-.07,5.21,0,10.42,0,15.63,0,2.16,0,4.32-.15,6.46-.1,1.67-2.28,3.53-4,3.56A3.87,3.87,0,0,1,25.71,42c-.08-5.71-.06-11.42,0-17.13a8.83,8.83,0,0,0-1.53-5.32C18,10.35,25.26,1.05,33.39.2A33.83,33.83,0,0,1,37.15,0c8.6.07,17.2,0,25.79.32A12.2,12.2,0,0,1,73.63,6.6a11,11,0,0,1-.11,12.1,11.29,11.29,0,0,0-1.8,6.49c.1,11.83.08,23.67,0,35.5A3.54,3.54,0,0,0,74,64.29,44,44,0,0,1,87.58,75.37,51.37,51.37,0,0,1,99.19,100a48.67,48.67,0,0,1-4.53,31c-6.85,13.83-17.75,23-32.53,27.07-15.38,4.26-29.9,1.67-43.15-7.26C10.35,144.92,4,137.15,1,127.16c-1.52-5-1.56-10.22,1.8-14.83,4.76-6.54,16.38-8,21.39.37,2.05,3.43,3.66,7.11,5.57,10.63a50,50,0,0,0,3.72,6.17,13.41,13.41,0,0,0,16.32,4.28c6.42-3.13,9.69-9.56,7.72-16-.83-2.73-2.64-5.14-3.85-7.77a73.82,73.82,0,0,1-2.93-7.34,5.41,5.41,0,0,1,1.21-5.35,76.59,76.59,0,0,1,6.32-6.42,17.77,17.77,0,0,0,6.21-11,24.2,24.2,0,0,0-.27-5.22c-.31-3.23-.94-6.45-1-9.68-.09-12.29,0-24.57,0-36.85,0-3.11,0-6.22-.11-9.33A2.74,2.74,0,0,1,64.72,16c2.51-1.46,2.93-4.61.88-6.32a4,4,0,0,0-2.3-.9c-5.13-.08-10.26,0-15.39,0Z"/><path class="cls-1" d="M26.18,60c3.37,0,6.53,2.8,6.51,5.78,0,3.54-3,6.72-6.25,6.7a6.31,6.31,0,0,1-6.13-6.42A6.05,6.05,0,0,1,26.18,60Z"/></g></g></svg>